<svg viewBox="0 0 96 48" xmlns="http://www.w3.org/2000/svg" role="img"><title>Kaggle icon</title>
    <rect width="96" height="48" fill="#20BEFF"></rect>
	<g transform="translate(36,12)">
		<!-- width="24" -->
		<path fill="#FFFFFF" d="M18.825 23.859c-.022.092-.117.141-.281.141h-3.139c-.187 0-.351-.082-.492-.248l-5.178-6.589-1.448 1.374v5.111c0 .235-.117.352-.351.352H5.505c-.236 0-.354-.117-.354-.352V.353c0-.233.118-.353.354-.353h2.431c.234 0 .351.12.351.353v14.343l6.203-6.272c.165-.165.33-.246.495-.246h3.239c.144 0 .236.06.285.18.046.149.034.255-.036.315l-6.555 6.344 6.836 8.507c.095.104.117.208.07.358"/>
	</g>
</svg>